<svg width="208" height="26" viewBox="0 0 208 26" fill="none" xmlns="http://www.w3.org/2000/svg">
<path d="M205.571 21.2216C206.662 21.2216 207.608 20.3097 207.616 19.1761C207.608 18.0597 206.662 17.1477 205.571 17.1477C204.446 17.1477 203.517 18.0597 203.526 19.1761C203.517 20.3097 204.446 21.2216 205.571 21.2216Z" fill="#FF8957"/>
<path d="M61.1222 25.3182C64.2401 25.3182 66.456 23.8977 66.456 21.1065V10.0909H63.4517V11.9233H63.3381C62.9332 11.0355 62.0454 9.94888 60.2202 9.94888C57.8267 9.94888 55.8026 11.8097 55.8026 15.5242C55.8026 19.1534 57.7699 20.8438 60.2273 20.8438C61.9673 20.8438 62.9403 19.9702 63.3381 19.0682H63.4659V21.0639C63.4659 22.5625 62.5071 23.1449 61.1932 23.1449C59.8579 23.1449 59.1832 22.5625 58.9347 21.902L56.1364 22.2784C56.4986 23.9972 58.1818 25.3182 61.1222 25.3182ZM61.1861 18.571C59.7017 18.571 58.892 17.3921 58.892 15.51C58.892 13.6563 59.6875 12.3565 61.1861 12.3565C62.6562 12.3565 63.4801 13.5994 63.4801 15.51C63.4801 17.4347 62.642 18.571 61.1861 18.571Z" fill="white"/>
<path d="M71.9744 21.206C73.5866 21.206 74.6307 20.5029 75.1633 19.4872H75.2486V21H78.1179V13.6421C78.1179 11.0426 75.9162 9.94888 73.4872 9.94888C70.8736 9.94888 69.1548 11.1989 68.7358 13.1875L71.5341 13.4148C71.7401 12.6904 72.3864 12.1577 73.473 12.1577C74.5028 12.1577 75.0923 12.6762 75.0923 13.571V13.6137C75.0923 14.3168 74.3466 14.4091 72.4503 14.5938C70.2912 14.7926 68.3523 15.5171 68.3523 17.9531C68.3523 20.1122 69.8935 21.206 71.9744 21.206ZM72.8409 19.1179C71.9105 19.1179 71.2429 18.6847 71.2429 17.8537C71.2429 17.0014 71.946 16.5824 73.0114 16.4333C73.6719 16.3409 74.7514 16.1847 75.1136 15.9432V17.1009C75.1136 18.2443 74.169 19.1179 72.8409 19.1179Z" fill="white"/>
<path d="M83.4908 6.45456H80.4652V21H83.4908V6.45456Z" fill="white"/>
<path d="M89.0252 21.206C90.6374 21.206 91.6815 20.5029 92.2141 19.4872H92.2994V21H95.1687V13.6421C95.1687 11.0426 92.967 9.94888 90.538 9.94888C87.9244 9.94888 86.2056 11.1989 85.7866 13.1875L88.5849 13.4148C88.7908 12.6904 89.4371 12.1577 90.5238 12.1577C91.5536 12.1577 92.1431 12.6762 92.1431 13.571V13.6137C92.1431 14.3168 91.3974 14.4091 89.5011 14.5938C87.342 14.7926 85.403 15.5171 85.403 17.9531C85.403 20.1122 86.9442 21.206 89.0252 21.206ZM89.8917 19.1179C88.9613 19.1179 88.2937 18.6847 88.2937 17.8537C88.2937 17.0014 88.9968 16.5824 90.0621 16.4333C90.7226 16.3409 91.8022 16.1847 92.1644 15.9432V17.1009C92.1644 18.2443 91.2198 19.1179 89.8917 19.1179Z" fill="white"/>
<path d="M100.044 10.0909H96.9194L100.044 15.5455L96.8057 21H99.9307L102.047 17.2287L104.199 21H107.289L104.043 15.5455L107.203 10.0909H104.1L102.047 13.9048L100.044 10.0909Z" fill="white"/>
<path d="M110.868 25.0909C113.12 25.0909 114.313 23.9404 114.931 22.179L119.171 10.1051L115.968 10.0909L113.688 18.1023H113.574L111.316 10.0909H108.134L112.047 21.3125L111.87 21.7742C111.472 22.7969 110.712 22.8466 109.647 22.5199L108.965 24.7784C109.398 24.9631 110.101 25.0909 110.868 25.0909Z" fill="white"/>
<path d="M125.32 21.2131C128.018 21.2131 129.837 19.8992 130.263 17.875L127.464 17.6904C127.159 18.5213 126.378 18.9546 125.369 18.9546C123.857 18.9546 122.898 17.9531 122.898 16.3267V16.3196H130.327V15.4887C130.327 11.7813 128.082 9.94888 125.199 9.94888C121.989 9.94888 119.908 12.2287 119.908 15.5952C119.908 19.054 121.96 21.2131 125.32 21.2131ZM122.898 14.4446C122.962 13.2017 123.906 12.2074 125.249 12.2074C126.562 12.2074 127.472 13.1449 127.479 14.4446H122.898Z" fill="white"/>
<path d="M134.654 10.0909H131.529L134.654 15.5455L131.415 21H134.54L136.657 17.2287L138.809 21H141.898L138.652 15.5455L141.813 10.0909H138.709L136.657 13.9048L134.654 10.0909Z" fill="white"/>
<path d="M143.61 25.0909H146.635V19.2529H146.728C147.147 20.1619 148.063 21.1776 149.824 21.1776C152.31 21.1776 154.249 19.2102 154.249 15.5597C154.249 11.8097 152.225 9.94888 149.831 9.94888C148.006 9.94888 147.132 11.0355 146.728 11.9233H146.593V10.0909H143.61V25.0909ZM146.571 15.5455C146.571 13.5994 147.395 12.3565 148.865 12.3565C150.364 12.3565 151.159 13.6563 151.159 15.5455C151.159 17.4489 150.35 18.7699 148.865 18.7699C147.409 18.7699 146.571 17.4915 146.571 15.5455Z" fill="white"/>
<path d="M159.292 6.45456H156.266V21H159.292V6.45456Z" fill="white"/>
<path d="M166.644 21.2131C169.954 21.2131 172.013 18.9475 172.013 15.5881C172.013 12.2074 169.954 9.94888 166.644 9.94888C163.335 9.94888 161.275 12.2074 161.275 15.5881C161.275 18.9475 163.335 21.2131 166.644 21.2131ZM166.658 18.8693C165.131 18.8693 164.35 17.4702 164.35 15.5668C164.35 13.6634 165.131 12.2571 166.658 12.2571C168.157 12.2571 168.938 13.6634 168.938 15.5668C168.938 17.4702 168.157 18.8693 166.658 18.8693Z" fill="white"/>
<path d="M173.981 21H177.006V14.8281C177.006 13.4858 177.986 12.5625 179.322 12.5625C179.741 12.5625 180.316 12.6335 180.6 12.7259V10.0412C180.33 9.97729 179.954 9.93467 179.648 9.93467C178.427 9.93467 177.425 10.6449 177.028 11.9943H176.914V10.0909H173.981V21Z" fill="white"/>
<path d="M186.628 21.2131C189.327 21.2131 191.145 19.8992 191.571 17.875L188.773 17.6904C188.468 18.5213 187.686 18.9546 186.678 18.9546C185.165 18.9546 184.206 17.9531 184.206 16.3267V16.3196H191.635V15.4887C191.635 11.7813 189.391 9.94888 186.507 9.94888C183.297 9.94888 181.216 12.2287 181.216 15.5952C181.216 19.054 183.269 21.2131 186.628 21.2131ZM184.206 14.4446C184.27 13.2017 185.215 12.2074 186.557 12.2074C187.871 12.2074 188.78 13.1449 188.787 14.4446H184.206Z" fill="white"/>
<path d="M193.61 21H196.635V14.8281C196.635 13.4858 197.615 12.5625 198.951 12.5625C199.37 12.5625 199.945 12.6335 200.229 12.7259V10.0412C199.959 9.97729 199.583 9.93467 199.277 9.93467C198.056 9.93467 197.054 10.6449 196.657 11.9943H196.543V10.0909H193.61V21Z" fill="white"/>
<path d="M9.88103 0.55307L0 12.0576L9.88103 23.5601L12.2174 19.8829L5.55897 12.0556L12.2174 4.2283L9.88103 0.55307ZM14.2051 23.2854H18.5415L25.4359 0.764989H21.0974L14.2051 23.2854ZM30.119 0.55307L27.7826 4.23027L34.441 12.0576L27.7826 19.8849L30.119 23.562L40 12.0595L30.119 0.55307Z" fill="#FF8957"/>
</svg>
